<svg width="64" height="64" viewBox="0 0 64 64" fill="none" xmlns="http://www.w3.org/2000/svg">
<path d="M59 15.1078C58.9958 11.3346 55.9762 8.27698 52.25 8.27271H11.75C8.02376 8.27698 5.00422 11.3346 5 15.1078V43.239C5.00422 47.0123 8.02376 50.0699 11.75 50.0741H15.0671C15.2732 50.074 16.772 50.09 16.772 50.09C16.8062 50.2306 16.5793 51.1042 16.5506 51.2461L15.2378 57.8834C15.1495 58.3301 15.6197 58.6789 16.0215 58.4648L31.5508 50.1905C31.6889 50.1151 31.8431 50.0751 32 50.0741H52.25C55.9762 50.0699 58.9958 47.0123 59 43.239V15.1078Z" fill="url(#paint0_linear_2689_60609)"/>
<path d="M59 11.8395C58.9958 8.06387 55.9762 5.00427 52.25 5H11.75C8.02376 5.00427 5.00422 8.06387 5 11.8395V39.9889C5.00422 43.7645 8.02376 46.8241 11.75 46.8284H15.6071C15.7773 46.8283 16.8834 46.8128 17.2641 46.8074C17.3397 46.8063 17.3987 46.8588 17.391 46.934C17.3605 47.2305 17.2088 47.8829 17.185 48.0011L15.8797 54.6195C15.7908 55.0703 16.2696 55.419 16.6714 55.1962L31.5508 46.9448C31.6889 46.8694 31.8431 46.8294 32 46.8284H52.25C55.9762 46.8241 58.9958 43.7645 59 39.9889V11.8395Z" fill="url(#paint1_linear_2689_60609)"/>
<path d="M52.249 5.54004L52.5684 5.54883C55.8425 5.72066 58.456 8.46429 58.46 11.8398V39.9893C58.4555 43.4734 55.6705 46.2842 52.249 46.2881H31.9971C31.7507 46.2896 31.5082 46.3526 31.292 46.4707L31.2891 46.4727L16.4092 54.7236L17.7148 48.1055L17.7139 48.1045C17.7328 48.0133 17.8942 47.3159 17.9277 46.9893C17.9484 46.7883 17.8774 46.5919 17.7334 46.4531C17.6304 46.3539 17.5056 46.2973 17.3809 46.2764L17.2568 46.2676C16.8726 46.273 15.7717 46.288 15.6064 46.2881H11.751C8.43596 46.2843 5.71876 43.6456 5.54883 40.3125L5.54004 39.9883V11.8398L5.54883 11.5156C5.71341 8.29017 8.26299 5.71513 11.4316 5.54883L11.751 5.54004H52.249Z" stroke="white" stroke-opacity="0.2" stroke-width="1.08"/>
<g filter="url(#filter0_d_2689_60609)">
<path d="M37.4591 33.1471C37.0804 33.1104 36.6983 33.1524 36.3365 33.2703C35.9747 33.3883 35.6411 33.5797 35.3565 33.8326C34.7415 34.2598 34.0373 34.5578 33.2935 34.6969C32.4702 34.8359 31.7561 34.0412 31.9843 33.2365L35.1978 22.1499C35.5152 21.0571 34.682 19.9346 33.5513 19.9346H27.9971C26.9954 19.9346 26.1027 20.5902 25.8052 21.5539C25.5671 22.3188 25.9043 23.1533 26.6185 23.5407C27.521 24.0175 28.007 25.0408 27.7987 26.0441C27.1441 28.2694 26.4895 30.4947 25.8448 32.7199C25.4779 33.9717 24.9423 35.3028 24.9819 36.6241C25.0216 38.0944 26.0035 39.2964 27.4318 39.6342C31.6669 40.6475 36.0607 38.7997 38.3022 35.0744C38.7485 34.3194 38.3121 33.3259 37.4591 33.1471ZM33.6064 17.2604C35.6099 17.2604 37.2762 15.5914 37.2762 13.5847C37.2762 11.5879 35.6099 9.90906 33.6064 9.90906C31.6029 9.90906 29.9367 11.5879 29.9367 13.5847C29.9367 15.5914 31.6029 17.2604 33.6064 17.2604Z" fill="white"/>
</g>
<defs>
<filter id="filter0_d_2689_60609" x="23.8999" y="9.90906" width="15.66" height="32.5974" filterUnits="userSpaceOnUse" color-interpolation-filters="sRGB">
<feFlood flood-opacity="0" result="BackgroundImageFix"/>
<feColorMatrix in="SourceAlpha" type="matrix" values="0 0 0 0 0 0 0 0 0 0 0 0 0 0 0 0 0 0 127 0" result="hardAlpha"/>
<feOffset dy="1.5174"/>
<feGaussianBlur stdDeviation="0.54"/>
<feComposite in2="hardAlpha" operator="out"/>
<feColorMatrix type="matrix" values="0 0 0 0 0 0 0 0 0 0.310362 0 0 0 0 0.651085 0 0 0 0.7 0"/>
<feBlend mode="normal" in2="BackgroundImageFix" result="effect1_dropShadow_2689_60609"/>
<feBlend mode="normal" in="SourceGraphic" in2="effect1_dropShadow_2689_60609" result="shape"/>
</filter>
<linearGradient id="paint0_linear_2689_60609" x1="5.13334" y1="58.1551" x2="58.6414" y2="58.1551" gradientUnits="userSpaceOnUse">
<stop stop-color="#52A7FF"/>
<stop offset="0.0414257" stop-color="#86C5FF"/>
<stop offset="0.0815191" stop-color="#1F7ECB"/>
<stop offset="0.899024" stop-color="#1F7ECB"/>
<stop offset="0.952865" stop-color="#86C5FF"/>
<stop offset="1" stop-color="#52A7FF"/>
</linearGradient>
<linearGradient id="paint1_linear_2689_60609" x1="32" y1="5" x2="32" y2="55.76" gradientUnits="userSpaceOnUse">
<stop stop-color="#4BB6FE"/>
<stop offset="1" stop-color="#2F9FFE"/>
</linearGradient>
</defs>
</svg>
