<svg width="64" height="64" viewBox="0 0 64 64" fill="none" xmlns="http://www.w3.org/2000/svg">
<rect x="5.00024" y="9.00012" width="53.9999" height="49.9999" rx="7.99998" fill="url(#paint0_linear_2987_19221)"/>
<g clip-path="url(#clip0_2987_19221)">
<rect x="5" y="5.00003" width="53.9999" height="49.9999" rx="7.99998" fill="#2C4885"/>
<path d="M39.4167 50.9606H13.5833C12.156 50.9606 11 49.9377 11 48.6749V46.3892C11 45.1263 12.156 44.1035 13.5833 44.1035H39.4167C40.844 44.1035 42 45.1263 42 46.3892V48.6749C42 49.9377 40.844 50.9606 39.4167 50.9606Z" fill="#113B5D"/>
<path d="M39.4167 49.8177H13.5833C12.156 49.8177 11 48.7948 11 47.532V45.2463C11 43.9834 12.156 42.9606 13.5833 42.9606H39.4167C40.844 42.9606 42 43.9834 42 45.2463V47.532C42 48.7948 40.844 49.8177 39.4167 49.8177Z" fill="#00A0C8"/>
<path d="M38.1249 47.532H14.8749C14.1619 47.532 13.5833 47.02 13.5833 46.3892C13.5833 45.7583 14.1619 45.2463 14.8749 45.2463H38.1249C38.8379 45.2463 39.4166 45.7583 39.4166 46.3892C39.4166 47.02 38.8379 47.532 38.1249 47.532Z" fill="#00648C"/>
<path d="M39.4167 41.9606H13.5833C12.156 41.9606 11 40.9377 11 39.6749V37.3892C11 36.1263 12.156 35.1035 13.5833 35.1035H39.4167C40.844 35.1035 42 36.1263 42 37.3892V39.6749C42 40.9377 40.844 41.9606 39.4167 41.9606Z" fill="#113B5D"/>
<path d="M39.4167 40.8177H13.5833C12.156 40.8177 11 39.7948 11 38.532V36.2463C11 34.9834 12.156 33.9606 13.5833 33.9606H39.4167C40.844 33.9606 42 34.9834 42 36.2463V38.532C42 39.7948 40.844 40.8177 39.4167 40.8177Z" fill="#00A0C8"/>
<path d="M38.1249 38.532H14.8749C14.1619 38.532 13.5833 38.02 13.5833 37.3892C13.5833 36.7583 14.1619 36.2463 14.8749 36.2463H38.1249C38.8379 36.2463 39.4166 36.7583 39.4166 37.3892C39.4166 38.02 38.8379 38.532 38.1249 38.532Z" fill="#00648C"/>
<path d="M49 51.5001C50.6569 51.5001 52 50.1569 52 48.5001C52 46.8432 50.6569 45.5001 49 45.5001C47.3431 45.5001 46 46.8432 46 48.5001C46 50.1569 47.3431 51.5001 49 51.5001Z" fill="#113B5D"/>
<path d="M49 50C50.6569 50 52 48.6569 52 47C52 45.3432 50.6569 44 49 44C47.3431 44 46 45.3432 46 47C46 48.6569 47.3431 50 49 50Z" fill="#F0F0F0"/>
<path d="M48.9998 48.5001C49.8282 48.5001 50.4998 47.8285 50.4998 47.0001C50.4998 46.1716 49.8282 45.5001 48.9998 45.5001C48.1713 45.5001 47.4998 46.1716 47.4998 47.0001C47.4998 47.8285 48.1713 48.5001 48.9998 48.5001Z" fill="#C80A50"/>
<path d="M26.6579 20.0527H12.1316C11.5069 20.0527 11 19.5457 11 18.9211V12.1316C11 11.507 11.5069 11 12.1316 11H26.6579C27.2825 11 27.7895 11.507 27.7895 12.1316V18.9211C27.7895 19.5457 27.2825 20.0527 26.6579 20.0527Z" fill="#C80A50"/>
<path d="M22.3947 29.1053H12.1316C11.5069 29.1053 11 28.5984 11 27.9737V24.4474C11 23.8228 11.5069 23.3158 12.1316 23.3158H22.3947C23.0194 23.3158 23.5263 23.8228 23.5263 24.4474V27.9737C23.5263 28.5984 23.0194 29.1053 22.3947 29.1053Z" fill="#FAB400"/>
</g>
<rect x="5.7" y="5.70003" width="52.5999" height="48.5999" rx="7.29998" stroke="url(#paint1_linear_2987_19221)" stroke-width="1.4" style="mix-blend-mode:soft-light"/>
<path d="M35.1999 27.6659C34.6214 27.6659 34.1499 27.1955 34.1499 26.6159V14.0157C34.1499 13.4361 34.6214 12.9657 35.1999 12.9657H47.8001C48.3786 12.9657 48.8501 13.4361 48.8501 14.0157V26.6159C48.8501 27.1955 48.3786 27.6659 47.8001 27.6659H35.1999Z" fill="#113B5D"/>
<path d="M47.7998 14.0159V26.616H35.1996V14.0159H47.7998ZM47.7998 11.9159H35.1996C34.0394 11.9159 33.0996 12.8556 33.0996 14.0159V26.616C33.0996 27.7763 34.0394 28.7161 35.1996 28.7161H47.7998C48.96 28.7161 49.8998 27.7763 49.8998 26.616V14.0159C49.8998 12.8556 48.96 11.9159 47.7998 11.9159Z" fill="#BAD3D9"/>
<path d="M37.2998 16.1158H45.6999V24.5159H37.2998V16.1158Z" fill="#E0DCA8"/>
<path d="M36.25 9.8157C35.6704 9.8157 35.2 10.2861 35.2 10.8657V11.9157H37.3V10.8657C37.3 10.2861 36.8296 9.8157 36.25 9.8157Z" fill="#FAB400"/>
<path d="M41.5 9.8157C40.9204 9.8157 40.45 10.2861 40.45 10.8657V11.9157H42.55V10.8657C42.55 10.2861 42.0796 9.8157 41.5 9.8157Z" fill="#FAB400"/>
<path d="M46.75 9.8157C46.1704 9.8157 45.7 10.2861 45.7 10.8657V11.9157H47.8V10.8657C47.8 10.2861 47.3296 9.8157 46.75 9.8157Z" fill="#FAB400"/>
<path d="M36.25 30.8161C35.6704 30.8161 35.2 30.3457 35.2 29.766V28.716H37.3V29.766C37.3 30.3457 36.8296 30.8161 36.25 30.8161Z" fill="#FAB400"/>
<path d="M41.5 30.8161C40.9204 30.8161 40.45 30.3457 40.45 29.766V28.716H42.55V29.766C42.55 30.3457 42.0796 30.8161 41.5 30.8161Z" fill="#FAB400"/>
<path d="M46.75 30.8161C46.1704 30.8161 45.7 30.3457 45.7 29.766V28.716H47.8V29.766C47.8 30.3457 47.3296 30.8161 46.75 30.8161Z" fill="#FAB400"/>
<path d="M31 25.5659C31 26.1455 31.4704 26.616 32.05 26.616H33.1V24.5159H32.05C31.4704 24.5159 31 24.9863 31 25.5659Z" fill="#FAB400"/>
<path d="M31 20.3158C31 20.8954 31.4704 21.3658 32.05 21.3658H33.1V19.2658H32.05C31.4704 19.2658 31 19.7362 31 20.3158Z" fill="#FAB400"/>
<path d="M31 15.0658C31 15.6454 31.4704 16.1158 32.05 16.1158H33.1V14.0158H32.05C31.4704 14.0158 31 14.4862 31 15.0658Z" fill="#FAB400"/>
<path d="M51.9999 25.5659C51.9999 26.1455 51.5295 26.616 50.9499 26.616H49.8999V24.5159H50.9499C51.5295 24.5159 51.9999 24.9863 51.9999 25.5659Z" fill="#FAB400"/>
<path d="M51.9999 20.3158C51.9999 20.8954 51.5295 21.3658 50.9499 21.3658H49.8999V19.2658H50.9499C51.5295 19.2658 51.9999 19.7362 51.9999 20.3158Z" fill="#FAB400"/>
<path d="M51.9999 15.0658C51.9999 15.6454 51.5295 16.1158 50.9499 16.1158H49.8999V14.0158H50.9499C51.5295 14.0158 51.9999 14.4862 51.9999 15.0658Z" fill="#FAB400"/>
<path d="M49 41.5001C50.6569 41.5001 52 40.1569 52 38.5001C52 36.8432 50.6569 35.5001 49 35.5001C47.3431 35.5001 46 36.8432 46 38.5001C46 40.1569 47.3431 41.5001 49 41.5001Z" fill="#113B5D"/>
<path d="M49 40C50.6569 40 52 38.6569 52 37C52 35.3432 50.6569 34 49 34C47.3431 34 46 35.3432 46 37C46 38.6569 47.3431 40 49 40Z" fill="#F0F0F0"/>
<path d="M48.9998 38.5001C49.8282 38.5001 50.4998 37.8285 50.4998 37.0001C50.4998 36.1716 49.8282 35.5001 48.9998 35.5001C48.1713 35.5001 47.4998 36.1716 47.4998 37.0001C47.4998 37.8285 48.1713 38.5001 48.9998 38.5001Z" fill="#C80A50"/>
<defs>
<linearGradient id="paint0_linear_2987_19221" x1="5.00024" y1="59" x2="59.0001" y2="59" gradientUnits="userSpaceOnUse">
<stop stop-color="#243D72"/>
<stop offset="0.05" stop-color="#3D5FA9"/>
<stop offset="0.15" stop-color="#1C315F"/>
<stop offset="0.85" stop-color="#1C315F"/>
<stop offset="0.95" stop-color="#3D5FA9"/>
<stop offset="1" stop-color="#243D72"/>
</linearGradient>
<linearGradient id="paint1_linear_2987_19221" x1="31.9999" y1="1.00004" x2="31.9999" y2="60.9999" gradientUnits="userSpaceOnUse">
<stop stop-color="white" stop-opacity="0.9"/>
<stop offset="1" stop-color="white" stop-opacity="0.1"/>
</linearGradient>
<clipPath id="clip0_2987_19221">
<rect x="5" y="5.00003" width="53.9999" height="49.9999" rx="8" fill="white"/>
</clipPath>
</defs>
</svg>
