<?xml version="1.0" encoding="utf-8"?>
<svg xmlns="http://www.w3.org/2000/svg" version="1.1" id="Calque_1" x="0px" y="0px" width="860px" height="860px" viewBox="0 0 860 860" enable-background="new 0 0 712 860">
  <g transform="matrix(1, 0, 0, 1, 30.965195, 0.095924)">
    <path fill="#000000" d="M 727.609 677.74 C 727.599 677.73 727.588 677.719 727.588 677.71 C 721.519 670.86 718.628 658.16 715.519 644.63 C 712.418 631.11 708.949 616.53 697.849 607.08 C 697.828 607.059 697.798 607.04 697.779 607.019 C 695.579 605.099 693.319 603.48 691.049 602.129 C 688.77 600.779 686.459 599.679 684.15 598.809 C 699.58 553.049 693.53 507.48 677.95 466.309 C 658.84 415.769 625.47 371.74 599.98 341.62 C 571.45 305.63 543.549 271.47 544.1 221.01 C 544.949 144 552.569 1.19 417.049 1 C 411.539 0.99 405.789 1.22 399.799 1.7 C 248.359 13.89 288.529 173.89 286.279 227.46 C 283.509 266.64 275.569 297.52 248.619 335.82 C 216.969 373.46 172.389 434.39 151.279 497.82 C 141.319 527.75 136.579 558.259 140.949 587.139 C 139.579 588.369 138.279 589.66 137.029 590.98 C 127.739 600.91 120.869 612.929 113.219 621.019 C 106.069 628.16 95.889 630.87 84.689 634.879 C 73.489 638.9 61.199 644.819 53.739 659.139 C 53.739 659.139 53.739 659.15 53.729 659.15 C 53.719 659.17 53.709 659.2 53.689 659.219 C 50.179 665.769 49.039 672.839 49.039 680.009 C 49.039 686.639 50.019 693.36 51.009 699.829 C 53.069 713.289 55.159 726.018 52.389 734.639 C 43.529 758.869 42.389 775.619 48.629 787.78 C 54.889 799.96 67.739 805.33 82.269 808.37 C 111.329 814.43 150.679 812.93 181.689 829.37 L 184.359 824.34 L 181.719 829.38 C 214.919 846.74 248.579 852.901 275.429 846.77 C 294.909 842.331 310.709 830.731 318.829 812.89 C 339.829 812.79 362.879 803.89 399.799 801.861 C 424.849 799.84 456.139 810.76 492.129 808.76 C 493.069 812.66 494.43 816.42 496.289 819.99 C 496.31 820.019 496.329 820.059 496.35 820.09 C 510.299 847.99 536.219 860.75 563.85 858.57 C 591.509 856.389 620.919 840.08 644.7 811.79 L 640.34 808.13 L 644.731 811.75 C 667.391 784.27 705.001 772.88 729.951 757.84 C 742.421 750.32 752.531 740.901 753.321 727.22 C 754.099 713.55 746.069 698.23 727.609 677.74 Z" id="path3" style="fill:#202020;fill-opacity:1"/>
    <path fill="#D6A312" d="M 741.939 726.57 C 741.459 735.009 735.349 741.28 724.059 748.08 C 701.498 761.69 661.508 773.53 635.979 804.46 C 613.798 830.85 586.758 845.34 562.949 847.22 C 539.14 849.1 518.599 839.22 506.479 814.91 L 506.458 814.86 L 506.429 814.799 C 498.908 800.499 502.038 777.949 508.368 754.15 C 514.698 730.36 523.798 705.92 525.018 686.07 L 525.018 686.009 C 526.297 660.57 527.728 638.349 531.997 621.199 C 536.277 604.049 543.007 592.449 554.928 585.919 C 555.488 585.619 556.037 585.329 556.587 585.059 C 557.938 607.089 568.848 629.57 588.127 634.429 C 609.228 639.99 639.638 621.889 652.478 607.119 C 655.047 607.018 657.547 606.889 659.978 606.829 C 671.248 606.558 680.688 607.209 690.348 615.649 L 690.377 615.678 L 690.407 615.699 C 697.827 621.989 701.357 633.869 704.417 647.169 C 707.478 660.48 709.917 674.969 719.098 685.299 L 719.108 685.309 L 719.118 685.33 C 736.759 704.9 742.429 718.12 741.939 726.57 Z" id="path5" style="fill:#f8bf11;fill-opacity:1"/>
    <path fill="#D6A312" d="M 313.189 788.95 L 313.179 789.01 L 313.179 789.08 C 311.139 815.82 296.059 830.38 272.899 835.67 C 249.759 840.96 218.369 835.691 187.029 819.3 C 187.019 819.3 187.009 819.29 186.999 819.29 C 152.319 800.92 111.069 802.75 84.599 797.22 C 71.369 794.46 62.729 790.3 58.769 782.58 C 54.809 774.85 54.719 761.38 63.139 738.41 L 63.179 738.309 L 63.209 738.209 C 67.379 725.359 64.289 711.299 62.269 698.099 C 60.249 684.91 59.259 672.9 63.769 664.539 L 63.809 664.459 C 69.579 653.339 78.039 649.359 88.539 645.599 C 99.049 641.829 111.499 638.87 121.329 629.009 L 121.389 628.959 L 121.439 628.909 C 130.529 619.319 137.359 607.289 145.349 598.759 C 152.089 591.559 158.839 586.789 169.009 586.719 C 169.129 586.73 169.239 586.73 169.359 586.719 C 171.139 586.73 173.029 586.879 175.029 587.19 C 188.529 589.23 200.299 598.669 211.639 614.049 L 244.379 673.719 L 244.389 673.749 L 244.409 673.769 C 253.119 691.959 271.519 711.969 287.109 732.379 C 302.699 752.78 314.759 773.27 313.189 788.95 Z" id="path7" style="fill:#f8bf11;fill-opacity:1"/>
    <path d="M 476.469 232.69 C 473.839 227.54 468.469 222.64 459.329 218.89 L 459.309 218.88 L 459.279 218.87 C 440.269 210.73 432.019 210.15 421.409 203.25 C 404.139 192.15 389.869 188.26 378.009 188.31 C 371.799 188.33 366.249 189.43 361.279 191.15 C 346.829 196.12 337.239 206.49 331.229 212.18 L 331.219 212.19 C 331.219 212.2 331.209 212.2 331.209 212.21 C 330.029 213.33 328.509 214.35 324.829 217.05 C 321.119 219.76 315.559 223.84 307.559 229.84 C 300.449 235.17 298.139 242.11 300.599 250.24 C 303.049 258.37 310.889 267.75 325.229 275.86 L 325.249 275.88 L 325.279 275.89 C 334.179 281.12 340.259 288.17 347.239 293.78 C 350.729 296.58 354.399 299.08 358.819 300.97 C 363.239 302.86 368.399 304.14 374.859 304.52 C 390.019 305.4 401.179 300.85 411.029 295.21 C 420.899 289.58 429.258 282.69 438.849 279.58 L 438.869 279.57 L 438.89 279.56 C 458.549 273.42 472.57 261.05 476.959 249.3 C 479.159 243.42 479.089 237.84 476.469 232.69 Z" id="path9" style="fill:#f8bf11;fill-opacity:1" fill="#D6A312"/>
    <path d="M 426.589 261.71 C 410.948 269.863 392.679 279.75 373.239 279.75 C 353.809 279.75 338.459 270.77 327.419 262.02 C 321.899 257.65 317.419 253.3 314.039 250.14 C 308.175 245.511 308.877 239.018 311.287 239.21 C 315.325 239.714 315.936 245.032 318.479 247.41 C 321.919 250.63 326.229 254.8 331.449 258.94 C 341.889 267.21 355.809 275.26 373.239 275.26 C 390.639 275.26 410.951 265.045 423.349 258.09 C 430.373 254.15 439.311 247.087 446.606 241.733 C 452.186 237.636 451.983 232.703 456.591 233.24 C 461.199 233.777 457.79 238.7 451.337 244.332 C 444.884 249.964 434.789 257.436 426.589 261.71 L 426.589 261.71 Z" id="path11" style="fill:#202020;fill-opacity:1"/>
    <path fill="#FFFFFF" d="M 666.089 595.47 C 663.919 595.39 661.779 595.401 659.699 595.45 C 659.509 595.46 659.319 595.46 659.119 595.46 C 664.489 578.5 652.609 565.99 620.949 551.67 C 588.119 537.231 561.959 538.66 557.539 567.96 C 557.259 569.49 557.029 571.06 556.859 572.64 C 554.399 573.5 551.939 574.58 549.459 575.93 C 534.049 584.37 525.629 599.67 520.949 618.451 C 516.279 637.211 514.929 659.881 513.649 685.371 C 513.649 685.381 513.649 685.381 513.649 685.391 C 512.859 698.202 507.579 715.541 502.239 733.902 C 448.459 772.271 373.819 788.891 310.439 745.631 C 306.149 738.841 301.219 732.111 296.149 725.471 C 292.909 721.232 289.579 717.021 286.279 712.862 C 292.779 712.872 298.309 711.801 302.779 709.782 C 308.339 707.252 312.239 703.212 314.179 698.011 C 318.039 687.621 314.159 672.961 301.789 656.211 C 289.419 639.471 268.469 620.581 237.689 601.701 C 237.689 601.701 237.689 601.701 237.689 601.691 C 215.069 587.621 202.429 570.38 196.509 551.661 C 190.579 532.931 191.409 512.681 195.979 492.691 C 204.739 454.321 227.239 417.001 241.599 393.581 C 245.459 390.741 242.979 398.861 227.059 428.421 C 212.799 455.442 186.129 517.801 222.639 566.482 C 223.619 531.841 231.889 496.511 245.779 463.461 C 266.009 417.611 308.319 338.081 311.679 274.701 C 313.419 275.961 319.369 279.981 322.019 281.491 C 322.029 281.501 322.029 281.501 322.039 281.501 C 329.799 286.071 335.629 292.751 343.179 298.821 C 350.749 304.901 360.199 310.151 374.479 310.981 C 375.849 311.061 377.189 311.101 378.499 311.101 C 393.219 311.101 404.699 306.301 414.259 300.831 C 424.65 294.891 432.949 288.311 440.82 285.751 C 440.83 285.741 440.84 285.741 440.85 285.741 C 457.48 280.541 470.69 271.341 478.209 260.621 C 491.129 311.541 521.169 385.091 540.48 420.981 C 550.75 440.021 571.169 480.481 579.99 529.231 C 585.58 529.06 591.74 529.871 598.33 531.56 C 621.4 471.75 578.77 407.34 559.27 389.4 C 551.4 381.76 551.02 378.34 554.93 378.5 C 576.07 397.21 603.839 434.82 613.94 477.28 C 618.549 496.639 619.53 517 614.589 537.09 C 616.999 538.09 619.459 539.18 621.949 540.361 C 658.979 558.39 672.669 574.07 666.089 595.47 Z" id="path13"/>
    <path style="color:#000000;clip-rule:nonzero;display:inline;overflow:visible;visibility:visible;opacity:1;isolation:auto;mix-blend-mode:normal;color-interpolation:sRGB;color-interpolation-filters:linearRGB;solid-color:#000000;solid-opacity:1;fill:#e6e6e6;fill-opacity:1;fill-rule:nonzero;stroke:none;stroke-width:55;stroke-linecap:butt;stroke-linejoin:miter;stroke-miterlimit:4;stroke-dasharray:none;stroke-dashoffset:0;stroke-opacity:1;color-rendering:auto;image-rendering:auto;shape-rendering:auto;text-rendering:auto;enable-background:accumulate" d="M 402.197 433.795 C 332.264 434.047 269.527 497.477 243.939 593.801 L 247.689 596.135 L 247.689 596.346 C 276.562 614.678 297.124 633.07 309.832 650.268 L 309.832 650.27 L 309.834 650.27 C 323.267 668.459 329.244 686.174 323.553 701.494 L 323.551 701.5 L 323.549 701.506 C 320.667 709.231 314.529 715.421 306.922 718.883 L 306.908 718.889 L 306.896 718.895 C 306.097 719.256 305.243 719.523 304.414 719.832 C 308.964 725.801 313.421 731.951 317.527 738.268 C 375.515 776.86 442.972 762.582 493.598 727.666 C 498.542 710.629 503.045 694.741 503.664 684.809 C 504.946 659.288 506.233 636.173 511.246 616.035 L 511.246 616.033 C 516.298 595.758 526.126 577.307 544.656 567.158 L 544.666 567.152 L 544.678 567.146 C 545.719 566.58 546.765 566.249 547.809 565.756 C 548.143 563.751 548.607 561.821 549.17 559.959 C 518.836 482.199 462.866 434.153 402.197 433.795 Z M 547.703 566.16 L 547.65 566.469 C 547.656 566.433 547.669 566.402 547.674 566.367 C 547.686 566.299 547.691 566.228 547.703 566.16 Z" id="path4166"/>
    <path d="M 478.209 174.03 C 478.289 184.12 476.549 192.71 472.719 201.48 C 470.539 206.48 468.03 210.68 465.02 214.32 C 463.999 213.83 462.94 213.36 461.839 212.91 C 458.029 211.28 454.659 209.94 451.64 208.8 C 448.619 207.66 446.262 206.881 443.831 206.041 C 445.592 203.911 449.061 201.401 450.352 198.251 C 452.312 193.501 453.272 188.861 453.452 183.331 C 453.452 183.111 453.522 182.921 453.522 182.661 C 453.632 177.361 452.932 172.831 451.382 168.191 C 449.762 163.321 447.701 159.821 444.722 156.911 C 441.732 154.001 438.752 152.681 435.172 152.561 C 435.002 152.551 434.842 152.551 434.672 152.551 C 431.312 152.561 428.392 153.721 425.371 156.241 C 422.201 158.891 419.851 162.281 417.892 167.001 C 415.942 171.721 414.982 176.401 414.791 181.961 C 414.762 182.181 414.762 182.371 414.762 182.591 C 414.692 185.651 414.892 188.451 415.362 191.171 C 408.482 187.741 399.68 185.24 393.6 183.79 C 393.25 181.16 393.05 178.45 392.99 175.61 L 392.99 174.84 C 392.88 164.78 394.53 156.15 398.4 147.39 C 402.27 138.62 407.06 132.32 413.799 127.19 C 420.549 122.07 427.18 119.72 435.029 119.64 L 435.399 119.64 C 443.079 119.64 449.649 121.9 456.399 126.79 C 463.249 131.77 468.189 137.99 472.169 146.69 C 476.069 155.17 477.949 163.46 478.14 173.29 C 478.139 173.55 478.139 173.77 478.209 174.03 L 478.209 174.03 Z" id="path15" style="fill:#ffffff"/>
    <path d="M 362.129 184.08 C 361.119 184.37 360.139 184.68 359.169 185.01 C 353.669 186.91 349.302 189.007 345.082 191.797 C 345.492 188.877 345.552 185.917 345.232 182.607 C 345.202 182.427 345.202 182.277 345.202 182.097 C 344.762 177.707 343.832 174.027 342.282 170.307 C 340.632 166.437 338.782 163.707 336.352 161.607 C 334.152 159.707 332.072 158.827 329.772 158.847 C 329.542 158.847 329.302 158.857 329.062 158.877 C 326.482 159.097 324.342 160.357 322.312 162.827 C 320.292 165.287 318.962 168.347 318.002 172.407 C 317.042 176.457 316.792 180.437 317.192 185.007 C 317.192 185.187 317.232 185.337 317.232 185.517 C 317.672 189.947 318.562 193.627 320.142 197.347 C 321.762 201.177 323.642 203.907 326.072 206.007 C 326.482 206.357 326.882 206.677 327.282 206.957 C 324.762 208.907 323.069 210.29 320.989 211.81 C 319.659 212.78 318.079 213.94 316.239 215.3 C 312.229 211.54 309.099 206.82 306.359 200.59 C 303.119 193.23 301.389 185.86 300.869 177.16 L 300.869 177.09 C 300.389 168.39 301.239 160.91 303.629 153.17 C 306.029 145.43 309.229 139.83 313.879 135.23 C 318.519 130.62 323.199 128.3 328.839 128.01 C 329.279 127.99 329.709 127.98 330.139 127.98 C 335.249 127.99 339.809 129.69 344.529 133.46 C 349.649 137.55 353.519 142.78 356.759 150.15 C 360.009 157.52 361.739 164.89 362.219 173.59 L 362.219 173.66 C 362.449 177.31 362.419 180.75 362.129 184.08 L 362.129 184.08 Z" id="path17" style="fill:#ffffff"/>
    <path id="path28396-7" d="M 387.786 204.89 C 388.433 206.966 391.779 206.622 393.712 207.618 C 395.409 208.491 396.773 210.407 398.68 210.462 C 400.501 210.514 403.334 209.831 403.571 208.025 C 403.884 205.64 400.4 204.124 398.158 203.25 C 395.274 202.125 391.578 201.554 388.872 203.059 C 388.252 203.404 387.575 204.212 387.786 204.89 L 387.786 204.89 Z" style="opacity:1;fill:#202020;fill-opacity:1;stroke:none"/>
    <path style="opacity:1;fill:#202020;fill-opacity:1;stroke:none" d="M 368.021 204.89 C 367.375 206.966 364.028 206.622 362.095 207.618 C 360.399 208.491 359.034 210.407 357.127 210.462 C 355.306 210.514 352.473 209.831 352.236 208.025 C 351.924 205.64 355.407 204.124 357.649 203.25 C 360.534 202.125 364.23 201.554 366.936 203.059 C 367.556 203.404 368.232 204.212 368.021 204.89 L 368.021 204.89 Z" id="path5461"/>
  </g>
</svg>